<svg height="512pt" viewBox="0 0 512 512" width="512pt" xmlns="http://www.w3.org/2000/svg"><path d="m150 150h212v212h-212zm0 0"/><path d="m497 211c8.285156 0 15-6.714844 15-15s-6.714844-15-15-15h-45v-30h45c8.285156 0 15-6.714844 15-15s-6.714844-15-15-15h-45v-26c0-19.300781-15.699219-35-35-35h-26v-45c0-8.285156-6.714844-15-15-15s-15 6.714844-15 15v45h-30v-45c0-8.285156-6.714844-15-15-15s-15 6.714844-15 15v45h-30v-45c0-8.285156-6.714844-15-15-15s-15 6.714844-15 15v45h-30v-45c0-8.285156-6.714844-15-15-15s-15 6.714844-15 15v45h-30v-45c0-8.285156-6.714844-15-15-15s-15 6.714844-15 15v45h-26c-19.300781 0-35 15.699219-35 35v26h-45c-8.285156 0-15 6.714844-15 15s6.714844 15 15 15h45v30h-45c-8.285156 0-15 6.714844-15 15s6.714844 15 15 15h45v30h-45c-8.285156 0-15 6.714844-15 15s6.714844 15 15 15h45v30h-45c-8.285156 0-15 6.714844-15 15s6.714844 15 15 15h45v30h-45c-8.285156 0-15 6.714844-15 15s6.714844 15 15 15h45v26c0 19.300781 15.699219 35 35 35h26v45c0 8.285156 6.714844 15 15 15s15-6.714844 15-15v-45h30v45c0 8.285156 6.714844 15 15 15s15-6.714844 15-15v-45h30v45c0 8.285156 6.714844 15 15 15s15-6.714844 15-15v-45h30v45c0 8.285156 6.714844 15 15 15s15-6.714844 15-15v-45h30v45c0 8.285156 6.714844 15 15 15s15-6.714844 15-15v-45h26c19.300781 0 35-15.699219 35-35v-26h45c8.285156 0 15-6.714844 15-15s-6.714844-15-15-15h-45v-30h45c8.285156 0 15-6.714844 15-15s-6.714844-15-15-15h-45v-30h45c8.285156 0 15-6.714844 15-15s-6.714844-15-15-15h-45v-30zm-105 166c0 8.285156-6.714844 15-15 15h-242c-8.285156 0-15-6.714844-15-15v-242c0-8.285156 6.714844-15 15-15h242c8.285156 0 15 6.714844 15 15zm0 0"/></svg>