<svg id="Layer_1" enable-background="new 0 0 512 512" height="512" viewBox="0 0 512 512" width="512" xmlns="http://www.w3.org/2000/svg"><path d="m491.73 362.67h-471.46c-11.18 0-20.27 9.09-20.27 20.26v108.8c0 11.18 9.09 20.27 20.27 20.27h471.46c11.18 0 20.27-9.09 20.27-20.27v-108.8c0-11.17-9.09-20.26-20.27-20.26zm-417.06 108.8c-18.82 0-34.14-15.32-34.14-34.14s15.32-34.13 34.14-34.13 34.13 15.31 34.13 34.13-15.31 34.14-34.13 34.14zm235.73-18.14h-145.07c-8.83 0-16-7.16-16-16 0-8.83 7.17-16 16-16h145.07c8.84 0 16 7.17 16 16 0 8.84-7.16 16-16 16zm88.53 2.14c0 8.83-7.16 16-16 16-8.83 0-16-7.17-16-16v-36.27c0-8.84 7.17-16 16-16 8.84 0 16 7.16 16 16zm72.54 0c0 8.83-7.17 16-16 16-8.84 0-16-7.17-16-16v-36.27c0-8.84 7.16-16 16-16 8.83 0 16 7.16 16 16z"/><path d="m491.73 181.33h-471.46c-11.18 0-20.27 9.09-20.27 20.27v108.8c0 11.18 9.09 20.27 20.27 20.27h471.46c11.18 0 20.27-9.09 20.27-20.27v-108.8c0-11.18-9.09-20.27-20.27-20.27zm-417.06 108.8c-18.82 0-34.14-15.31-34.14-34.13s15.32-34.13 34.14-34.13 34.13 15.31 34.13 34.13-15.31 34.13-34.13 34.13zm235.73-18.13h-145.07c-8.83 0-16-7.16-16-16s7.17-16 16-16h145.07c8.84 0 16 7.16 16 16s-7.16 16-16 16zm88.53 2.13c0 8.84-7.16 16-16 16-8.83 0-16-7.16-16-16v-36.26c0-8.84 7.17-16 16-16 8.84 0 16 7.16 16 16zm72.54 0c0 8.84-7.17 16-16 16-8.84 0-16-7.16-16-16v-36.26c0-8.84 7.16-16 16-16 8.83 0 16 7.16 16 16z"/><path d="m491.73 0h-471.46c-11.18 0-20.27 9.09-20.27 20.27v108.8c0 11.17 9.09 20.26 20.27 20.26h471.46c11.18 0 20.27-9.09 20.27-20.26v-108.8c0-11.18-9.09-20.27-20.27-20.27zm-417.06 108.8c-18.82 0-34.14-15.31-34.14-34.13s15.32-34.14 34.14-34.14 34.13 15.32 34.13 34.14-15.31 34.13-34.13 34.13zm235.73-18.13h-145.07c-8.83 0-16-7.17-16-16 0-8.84 7.17-16 16-16h145.07c8.84 0 16 7.16 16 16 0 8.83-7.16 16-16 16zm88.53 2.13c0 8.84-7.16 16-16 16-8.83 0-16-7.16-16-16v-36.27c0-8.83 7.17-16 16-16 8.84 0 16 7.17 16 16zm72.54 0c0 8.84-7.17 16-16 16-8.84 0-16-7.16-16-16v-36.27c0-8.83 7.16-16 16-16 8.83 0 16 7.17 16 16z"/></svg>